<svg width="32" height="32" viewBox="0 0 32 32" fill="none" xmlns="http://www.w3.org/2000/svg">
  <circle cx="16" cy="16" r="16" fill="url(#gradient)"/>
  <path d="M16 6C11.0294 6 7 10.0294 7 15C7 19.9706 11.0294 24 16 24C20.9706 24 25 19.9706 25 15C25 10.0294 20.9706 6 16 6ZM16 22C12.1340 22 9 18.8660 9 15C9 11.1340 12.1340 8 16 8C19.8660 8 23 11.1340 23 15C23 18.8660 19.8660 22 16 22Z" fill="white"/>
  <circle cx="16" cy="11" r="1.5" fill="white"/>
  <circle cx="12" cy="13" r="1.5" fill="white"/>
  <circle cx="20" cy="13" r="1.5" fill="white"/>
  <circle cx="11" cy="17" r="1.5" fill="white"/>
  <circle cx="21" cy="17" r="1.5" fill="white"/>
  <circle cx="14" cy="19" r="1.5" fill="white"/>
  <circle cx="18" cy="19" r="1.5" fill="white"/>
  <circle cx="16" cy="15" r="2" fill="white"/>
  <defs>
    <linearGradient id="gradient" x1="0" y1="0" x2="32" y2="32" gradientUnits="userSpaceOnUse">
      <stop stop-color="#6366F1"/>
      <stop offset="1" stop-color="#8B5CF6"/>
    </linearGradient>
  </defs>
</svg>